<svg width="32" height="32" viewBox="0 0 32 32" fill="none" xmlns="http://www.w3.org/2000/svg">
  <!-- Logo abstracto V/wing con teal/cyan y negro -->
  
  <defs>
    <linearGradient id="tealGrad" x1="0%" y1="0%" x2="100%" y2="100%">
      <stop offset="0%" style="stop-color:#00D9FF;stop-opacity:1" />
      <stop offset="100%" style="stop-color:#00B8D4;stop-opacity:1" />
    </linearGradient>
  </defs>
  
  <!-- Wing izquierdo - forma principal negra -->
  <path d="M4 8 L16 4 L28 8 L28 20 L16 24 L4 20 Z" fill="black"/>
  <path d="M4 8 L16 4 L28 8" stroke="white" stroke-width="1.5" fill="none"/>
  
  <!-- Wing derecho - forma principal negra -->
  <path d="M28 8 L28 20 L16 24 L16 28 L4 24 L4 20" fill="black"/>
  
  <!-- Elementos teal superiores izquierdos -->
  <path d="M8 12 L12 10 L16 12 L14 16 L10 17 L8 14 Z" fill="url(#tealGrad)"/>
  <path d="M9 13 L11 12 L13 13 L12 14 L10 14.5 L9 13.5" fill="#00B8D4"/>
  
  <!-- Elementos teal superiores derechos -->
  <path d="M18 12 L22 10 L26 12 L24 16 L20 17 L18 14 Z" fill="url(#tealGrad)"/>
  <path d="M19 13 L21 12 L23 13 L22 14 L20 14.5 L19 13.5" fill="#00B8D4"/>
  
  <!-- Elementos teal inferiores -->
  <path d="M6 18 L10 19 L6 20" fill="url(#tealGrad)"/>
  <path d="M24 18 L28 19 L24 20" fill="url(#tealGrad)"/>
  
  <!-- Circuit traces -->
  <line x1="4" y1="8" x2="8" y2="12" stroke="black" stroke-width="0.8"/>
  <line x1="28" y1="8" x2="24" y2="12" stroke="black" stroke-width="0.8"/>
  <line x1="16" y1="4" x2="16" y2="12" stroke="black" stroke-width="0.5"/>
  
  <!-- Puntos de conexión (nodos del circuito) -->
  <circle cx="8" cy="12" r="1.5" fill="#00D9FF" stroke="black" stroke-width="0.3"/>
  <circle cx="24" cy="12" r="1.5" fill="#00D9FF" stroke="black" stroke-width="0.3"/>
  <circle cx="16" cy="14" r="1" fill="black"/>
  
  <!-- Barra central inferior (8 rectángulos) -->
  <g transform="translate(10, 24)">
    <rect x="0" y="0" width="1.5" height="4" fill="black" stroke="#00D9FF" stroke-width="0.3"/>
    <rect x="2" y="1" width="1.5" height="3" fill="black" stroke="#00D9FF" stroke-width="0.3"/>
    <rect x="4" y="0.5" width="1.5" height="3.5" fill="black" stroke="#00D9FF" stroke-width="0.3"/>
    <rect x="6" y="1.5" width="1.5" height="2.5" fill="black" stroke="#00D9FF" stroke-width="0.3"/>
    <rect x="8" y="0" width="1.5" height="4" fill="black" stroke="#00D9FF" stroke-width="0.3"/>
    <rect x="10" y="1" width="1.5" height="3" fill="black" stroke="#00D9FF" stroke-width="0.3"/>
    <rect x="12" y="0.5" width="1.5" height="3.5" fill="black" stroke="#00D9FF" stroke-width="0.3"/>
    <rect x="14" y="1.5" width="1.5" height="2.5" fill="black" stroke="#00D9FF" stroke-width="0.3"/>
  </g>
  
  <!-- Triángulo invertido central -->
  <path d="M14 28 L16 26 L18 28 Z" fill="black" stroke="#00D9FF" stroke-width="0.3"/>
</svg>
