<svg width="200" height="80" viewBox="0 0 200 80" fill="none" xmlns="http://www.w3.org/2000/svg">
  <!-- Logo abstracto con diseño V/wing, teal/cyan y negro -->
  
  <!-- Definición de gradientes -->
  <defs>
    <linearGradient id="tealGradient" x1="0%" y1="0%" x2="100%" y2="100%">
      <stop offset="0%" style="stop-color:#00D9FF;stop-opacity:1" />
      <stop offset="100%" style="stop-color:#00B8D4;stop-opacity:1" />
    </linearGradient>
    <linearGradient id="darkTealGradient" x1="0%" y1="0%" x2="100%" y2="100%">
      <stop offset="0%" style="stop-color:#00B8D4;stop-opacity:1" />
      <stop offset="100%" style="stop-color:#0097A7;stop-opacity:1" />
    </linearGradient>
  </defs>
  
  <!-- Wing izquierdo - forma principal negra -->
  <path d="M20 15 L60 5 L100 15 L100 45 L60 55 L20 45 Z" fill="black"/>
  <path d="M20 15 L60 5 L100 15" stroke="white" stroke-width="2" fill="none"/>
  
  <!-- Wing derecho - forma principal negra -->
  <path d="M100 15 L140 5 L180 15 L180 45 L140 55 L100 45" fill="black"/>
  <path d="M100 15 L140 5 L180 15" stroke="white" stroke-width="2" fill="none"/>
  
  <!-- Elementos teal superiores izquierdos -->
  <path d="M30 20 L50 15 L70 20 L65 30 L45 32 L30 28 Z" fill="url(#tealGradient)"/>
  <path d="M35 25 L45 22 L55 25 L52 30 L42 31 L35 28" fill="url(#darkTealGradient)"/>
  
  <!-- Elementos teal superiores derechos -->
  <path d="M130 20 L150 15 L170 20 L165 30 L145 32 L130 28 Z" fill="url(#tealGradient)"/>
  <path d="M135 25 L145 22 L155 25 L152 30 L142 31 L135 28" fill="url(#darkTealGradient)"/>
  
  <!-- Elementos teal inferiores izquierdos -->
  <path d="M25 35 L55 40 L25 45" fill="url(#tealGradient)"/>
  <path d="M30 38 L50 42 L30 44" fill="url(#darkTealGradient)"/>
  
  <!-- Elementos teal inferiores derechos -->
  <path d="M145 35 L175 40 L145 45" fill="url(#tealGradient)"/>
  <path d="M150 38 L170 42 L150 44" fill="url(#darkTealGradient)"/>
  
  <!-- Circuit traces -->
  <line x1="20" y1="15" x2="30" y2="20" stroke="black" stroke-width="1"/>
  <line x1="180" y1="15" x2="170" y2="20" stroke="black" stroke-width="1"/>
  <line x1="60" y1="5" x2="60" y2="15" stroke="black" stroke-width="1"/>
  <line x1="140" y1="5" x2="140" y2="15" stroke="black" stroke-width="1"/>
  
  <!-- Puntos de conexión (nodos del circuito) -->
  <circle cx="30" cy="20" r="2.5" fill="#00D9FF" stroke="black" stroke-width="0.5"/>
  <circle cx="170" cy="20" r="2.5" fill="#00D9FF" stroke="black" stroke-width="0.5"/>
  <circle cx="60" cy="25" r="1.5" fill="black"/>
  <circle cx="140" cy="25" r="1.5" fill="black"/>
  
  <!-- Elemento central inferior (barra de 8 rectángulos) -->
  <g transform="translate(85, 50)">
    <rect x="0" y="0" width="3" height="8" fill="black" stroke="#00D9FF" stroke-width="0.5"/>
    <rect x="4" y="2" width="3" height="6" fill="black" stroke="#00D9FF" stroke-width="0.5"/>
    <rect x="8" y="1" width="3" height="7" fill="black" stroke="#00D9FF" stroke-width="0.5"/>
    <rect x="12" y="3" width="3" height="5" fill="black" stroke="#00D9FF" stroke-width="0.5"/>
    <rect x="16" y="0" width="3" height="8" fill="black" stroke="#00D9FF" stroke-width="0.5"/>
    <rect x="20" y="2" width="3" height="6" fill="black" stroke="#00D9FF" stroke-width="0.5"/>
    <rect x="24" y="1" width="3" height="7" fill="black" stroke="#00D9FF" stroke-width="0.5"/>
    <rect x="28" y="3" width="3" height="5" fill="black" stroke="#00D9FF" stroke-width="0.5"/>
  </g>
  
  <!-- Triángulo invertido central -->
  <path d="M95 58 L100 55 L105 58 Z" fill="black" stroke="#00D9FF" stroke-width="0.5"/>
</svg>
